<svg xmlns="http://www.w3.org/2000/svg" width="24" height="24" viewBox="0 0 24 24"><path d="M19 0h-14c-2.761 0-5 2.239-5 5v14c0 2.761 2.239 5 5 5h14c2.762 0 5-2.239 5-5v-14c0-2.761-2.238-5-5-5zm-11 19h-3v-9h3v9zm-1.5-10.268c-.966 0-1.75-.784-1.75-1.75s.784-1.75 1.75-1.75 1.75.784 1.75 1.75-.784 1.75-1.75 1.75zm15.5 10.268h-3v-4.604c0-1.099-.021-2.513-1.532-2.513-1.533 0-1.768 1.197-1.768 2.434v4.683h-3v-9h2.881v1.233h.041c.401-.761 1.379-1.563 2.838-1.563 3.036 0 3.6 2.001 3.6 4.599v4.731z"/></svg>
